<?xml version="1.0" encoding="utf-8"?>
<svg xmlns="http://www.w3.org/2000/svg" viewBox="66.201 92.565 93.143 39.149">
  <g id="layer1" transform="matrix(1, 0, 0, 1, -355.366119, -203.601151)">
    <g id="g7266" transform="matrix(0.26336935,0,0,0.26336935,267.79153,735.69741)">
      <g id="g6847" transform="translate(1291.6687,-2713.5979)" style="stroke:#ffffff">
        <g id="g6849" transform="translate(-1.9999988,247.45081)" style="stroke:#ffffff">
          <path id="path6851" d="m -684.31429,924.90515 0,-82.48626 c 0,-12.61496 10.15573,-22.77069 22.77069,-22.77069 l 14.23292,0" style="color:#000000;display:inline;overflow:visible;visibility:visible;fill:none;stroke:#ffffff;stroke-width:16;stroke-linecap:round;stroke-linejoin:round;stroke-miterlimit:4;stroke-dashoffset:0;stroke-opacity:1;marker:none;enable-background:accumulate"/>
          <path id="path6853" d="m -692.04297,869.41923 39.41039,0" style="fill:none;stroke:#ffffff;stroke-width:16;stroke-linecap:round;stroke-linejoin:round;stroke-opacity:1"/>
        </g>
        <path style="color:#000000;display:inline;overflow:visible;visibility:visible;fill:none;stroke:#ffffff;stroke-width:16;stroke-linecap:round;stroke-linejoin:round;stroke-miterlimit:4;stroke-dasharray:none;stroke-dashoffset:0;stroke-opacity:1;marker:none;enable-background:accumulate" d="m -572.936,1066.7216 0,105.6344" id="path6855"/>
        <path id="path6857" d="m -545.50603,1172.356 25.07235,0 c 13.24816,0 23.91365,-10.6102 23.91365,-23.7897 l 0,-4.7579 c 0,-13.1795 -10.66575,-23.8721 -23.91365,-23.7897 -15.00464,0.093 8.10144,0.1866 -6.90318,0.2799 -13.24816,0 -23.91366,-10.6102 -23.91366,-23.7897 l 0,-4.7579 c 0,-13.1795 10.6655,-23.7897 23.91366,-23.7897 l 25.07235,0" style="color:#000000;display:inline;overflow:visible;visibility:visible;fill:none;stroke:#ffffff;stroke-width:16;stroke-linecap:round;stroke-linejoin:round;stroke-miterlimit:4;stroke-dashoffset:0;stroke-opacity:1;marker:none;enable-background:accumulate"/>
        <rect style="color:#000000;display:inline;overflow:visible;visibility:visible;fill:none;stroke:#ffffff;stroke-width:16;stroke-linecap:round;stroke-linejoin:round;stroke-miterlimit:4;stroke-dasharray:none;stroke-dashoffset:0;stroke-opacity:1;marker:none;enable-background:accumulate" id="rect6859" width="50.704243" height="74.238625" x="-476.8345" y="1098.1173" ry="14.828341"/>
        <path id="path6861" d="m -629.62515,1067.099 0,82.4863 c 0,12.6149 10.15573,22.7707 22.77069,22.7707 l 14.23292,0" style="color:#000000;display:inline;overflow:visible;visibility:visible;fill:none;stroke:#ffffff;stroke-width:16;stroke-linecap:round;stroke-linejoin:round;stroke-miterlimit:4;stroke-dashoffset:0;stroke-opacity:1;marker:none;enable-background:accumulate"/>
        <path style="color:#000000;display:inline;overflow:visible;visibility:visible;fill:none;stroke:#ffffff;stroke-width:16;stroke-linecap:round;stroke-linejoin:round;stroke-miterlimit:4;stroke-dashoffset:0;stroke-opacity:1;marker:none;enable-background:accumulate" d="m -405.33322,1067.099 0,82.4863 c 0,12.6149 10.15573,22.7707 22.77069,22.7707 l 14.23292,0" id="path6863"/>
      </g>
    </g>
  </g>
</svg>