<?xml version="1.0" encoding="utf-8"?>
<svg xmlns="http://www.w3.org/2000/svg" viewBox="355.5851 34.3872 58.6828 58.6827" width="56.54895509823769mm" height="57.62364477745085mm" preserveAspectRatio="none"><g transform="matrix(0.27836087346076965, 0, 0, 0.27836087346076965, 442.0068054199219, -85.02022552490234)" id="g6865" style="fill:#ffffff"><path id="path6867" d="M -182.156 558.288 L -138.816 601.314 L -108.296 573.104 L -133.801 548.953 L -150.833 565.53 L -138.941 576.928 L -124.511 565.969 L -123.272 567.215 L -135.555 580.013 C -137.398 581.86 -139.412 582.461 -141.786 580.439 L -154.154 568.499 C -155.634 566.644 -155.961 564.823 -154.736 563.047 C -154.736 563.047 -147.251 553.082 -136.974 544.092 C -133.77 541.744 -130.985 542.325 -128.456 544.694 L -101.276 568.362 C -98.767 571.239 -99.303 574.841 -101.926 577.526 L -133.184 610.872 C -136.138 614.295 -142.996 614.077 -145.973 610.769 L -191.749 567.372 L -182.156 558.288 Z" style="color:#000000;display:inline;overflow:visible;visibility:visible;fill:#ffffff;fill-opacity:1;fill-rule:nonzero;stroke:none;stroke-width:2.59126377;marker:none;enable-background:accumulate"/><path style="color:#000000;display:inline;overflow:visible;visibility:visible;fill:#ffffff;fill-opacity:1;fill-rule:nonzero;stroke:none;stroke-width:2.59126377;marker:none;enable-background:accumulate" d="M -240.596 498.745 L -271.302 467.434 L -301.822 495.644 L -276.316 519.795 L -259.285 503.218 L -271.177 491.82 L -285.607 502.779 L -286.846 501.533 L -274.563 488.735 C -272.72 486.888 -270.706 486.287 -268.331 488.309 L -255.964 500.249 C -254.484 502.104 -254.157 503.925 -255.382 505.701 C -255.382 505.701 -262.866 515.666 -273.144 524.656 C -276.348 527.004 -279.133 526.423 -281.662 524.054 L -308.841 500.385 C -311.351 497.509 -310.814 493.906 -308.192 491.222 L -276.934 457.876 C -273.98 454.452 -267.122 454.671 -264.145 457.979 L -231.003 489.66 L -240.596 498.745 Z" id="path6869"/><path style="color:#000000;display:inline;overflow:visible;visibility:visible;fill:#ffffff;fill-opacity:1;fill-rule:nonzero;stroke:none;stroke-width:2.59126377;marker:none;enable-background:accumulate" d="m -189.8744,520.20012 51.75566,-52.06891 -28.21032,-30.52019 -24.15111,25.50547 16.57766,17.03141 11.39757,-11.89183 -10.95934,-14.43039 1.24669,-1.2388 12.79748,12.28329 c 1.8475,1.84296 2.44833,3.85708 0.42627,6.23129 l -11.93975,12.36732 c -1.85515,1.48001 -3.67652,1.80691 -5.45241,0.58243 0,0 -9.96501,-7.48483 -18.95535,-17.76225 -2.34714,-3.20411 -1.76686,-5.98904 0.60274,-8.51775 l 23.66823,-27.17969 c 2.87645,-2.50926 6.47896,-1.97316 9.16364,0.64957 l 33.34622,31.25806 c 3.42313,2.95385 3.20417,9.81213 -0.10339,12.78844 l -52.12565,54.50543 z" id="path6871"/><path id="path6873" d="m -220.24343,548.54776 -51.75566,52.06891 28.21032,30.52019 24.15111,-25.50547 -16.57766,-17.03141 -11.39757,11.89183 10.95934,14.43039 -1.24669,1.2388 -12.79748,-12.28329 c -1.8475,-1.84296 -2.44833,-3.85708 -0.42627,-6.23129 l 11.93975,-12.36732 c 1.85515,-1.48001 3.67652,-1.80691 5.45241,-0.58243 0,0 9.96501,7.48483 18.95535,17.76225 2.34714,3.20411 1.76686,5.98904 -0.60274,8.51775 l -23.66823,27.17969 c -2.87645,2.50926 -6.47896,1.97316 -9.16364,-0.64957 l -33.34622,-31.25806 c -3.42313,-2.95385 -3.20417,-9.81213 0.10339,-12.78844 l 52.12565,-54.50543 z" style="color:#000000;display:inline;overflow:visible;visibility:visible;fill:#ffffff;fill-opacity:1;fill-rule:nonzero;stroke:none;stroke-width:2.59126377;marker:none;enable-background:accumulate"/><path style="font-size: 12px; fill-opacity: 1; fill-rule: nonzero; stroke-width: 1px; stroke-opacity: 1; stroke: rgba(0, 0, 0, 0); fill: rgb(255, 255, 255);" d="M -232 494.455 C -229.72 494.362 -226.66 495.665 -224.84 496.389 C -221.04 497.172 -220.87 504.143 -219.93 508.258 C -218.32 512.995 -214.4 506.074 -213.42 508.879 C -215.05 512.061 -210.78 512.143 -210.71 515.489 C -210.86 517.15 -208.73 519.205 -208.13 520.184 C -206.58 519.74 -204.32 517.677 -203.92 516.372 C -201.55 516.281 -202.89 519.317 -201.81 519.327 C -201.01 519.336 -200.64 516.955 -200.38 517.041 C -196.01 518.446 -193.44 519.049 -189.34 521.255 C -185.56 526.124 -180.88 530.426 -175.2 532.692 C -170.93 533.339 -172.04 538.794 -174.26 541.144 C -177.16 543.792 -176.69 548.332 -178.26 551.004 C -181.82 553.451 -185.42 558.453 -187.27 560.657 C -191.3 564.315 -196.59 567.542 -199.31 572.714 C -202.07 575.3 -201.8 578.993 -202.49 582.424 C -205.91 581.803 -205.23 575.136 -204.75 571.963 C -203.66 567.49 -203.29 562.75 -201.78 558.46 C -199.21 552.529 -202.44 546.288 -205.86 541.576 C -207.54 537.967 -212.88 535.173 -210.28 530.57 C -208.98 527.589 -206 523.723 -208.38 520.636 C -211.71 519.749 -212.71 515.301 -215.81 513.799 C -219.37 512.884 -223.6 512.648 -225.83 508.99 C -228.75 505.487 -229.37 500.661 -231.25 496.709 C -234.46 493.341 -232.79 500.318 -231.87 501.891 C -231.57 502.588 -231.35 503.011 -231.17 503.244 C -233.26 501.327 -234.22 497.823 -233.94 495.092 C -233.43 494.674 -232.76 494.486 -232 494.455 Z M -208.51 506.021 C -209.13 505.786 -206.81 505.188 -205.93 504.452 C -206.04 504.439 -200.25 503.938 -199.43 506.661 C -199.96 507.118 -202.86 505.685 -204.6 505.656 C -206.45 505.627 -208.13 506.139 -208.51 506.021 Z M -189.44 511.198 C -189.58 511.453 -190.32 511.517 -190.32 510.993 C -190.03 510.487 -189.47 510.921 -189.44 511.198 Z M -192.94 510.188 C -192.25 510.894 -193.44 510.868 -195.37 510.981 C -196.73 510.255 -196.86 510.482 -198.81 509.563 C -196.69 509.761 -197.03 508.475 -195.81 508.449 C -194.06 508.411 -196.23 510.086 -192.94 510.188 Z M -205.06 481.373 C -234.33 481.373 -258.06 505.103 -258.06 534.374 C -258.06 563.644 -234.33 587.374 -205.06 587.374 C -175.79 587.374 -152.06 563.644 -152.06 534.374 C -152.06 505.103 -175.79 481.373 -205.06 481.373 Z" id="path6903"/><g transform="matrix(1.0923337,0.25861982,-0.25861982,1.0923337,160.90403,65.72318)" id="g6875" style="fill:#ffffff"><path id="path6877" d="m -212.37363,517.74995 15.31813,45.99113 c 0,0 10.85389,-5.00739 11.41711,1.79622 0.56321,6.80362 -14.99811,6.05293 -14.99811,6.05293 l -14.63562,-53.47392 z" style="color:#000000;display:inline;overflow:visible;visibility:visible;fill:#ffffff;fill-opacity:1;fill-rule:nonzero;stroke:none;stroke-width:2.59126377;marker:none;enable-background:accumulate"/><ellipse transform="matrix(0.20486933,-0.97878933,0.97878933,0.20486933,-662.31715,286.99496)" id="path6879" style="color:#000000;display:inline;overflow:visible;visibility:visible;fill:#ffffff;fill-opacity:1;fill-rule:nonzero;stroke:none;stroke-width:2.59126377;marker:none;enable-background:accumulate" cx="-148.45714" cy="505.67648" rx="4.8000002" ry="7.0285716"/><ellipse style="color:#000000;display:inline;overflow:visible;visibility:visible;fill:#ffffff;fill-opacity:1;fill-rule:nonzero;stroke:none;stroke-width:2.59126377;marker:none;enable-background:accumulate" id="path6881" transform="matrix(0.20486933,-0.97878933,0.97878933,0.20486933,-654.32827,298.52421)" cx="-148.45714" cy="505.67648" rx="4.8000002" ry="7.0285716"/><path style="color:#000000;display:inline;overflow:visible;visibility:visible;fill:#ffffff;fill-opacity:1;fill-rule:nonzero;stroke:none;stroke-width:2.59126377;marker:none;enable-background:accumulate" d="m -229.74419,444.99793 -15.31813,-45.99112 c 0,0 -10.85389,5.00739 -11.41711,-1.79622 -0.56321,-6.80363 14.99811,-6.05293 14.99811,-6.05293 l 14.63562,53.47391 z" id="path6883"/><ellipse style="color:#000000;display:inline;overflow:visible;visibility:visible;fill:#ffffff;fill-opacity:1;fill-rule:nonzero;stroke:none;stroke-width:2.59126377;marker:none;enable-background:accumulate" id="path6885" transform="matrix(-0.20486933,0.97878933,-0.97878933,-0.20486933,220.19933,675.75292)" cx="-148.45714" cy="505.67648" rx="4.8000002" ry="7.0285716"/><ellipse transform="matrix(-0.20486933,0.97878933,-0.97878933,-0.20486933,212.21045,664.22368)" id="path6887" style="color:#000000;display:inline;overflow:visible;visibility:visible;fill:#ffffff;fill-opacity:1;fill-rule:nonzero;stroke:none;stroke-width:2.59126377;marker:none;enable-background:accumulate" cx="-148.45714" cy="505.67648" rx="4.8000002" ry="7.0285716"/><path style="color:#000000;display:inline;overflow:visible;visibility:visible;fill:#ffffff;fill-opacity:1;fill-rule:nonzero;stroke:none;stroke-width:2.59126377;marker:none;enable-background:accumulate" d="m -184.6829,472.68866 45.99112,-15.31813 c 0,0 -5.00739,-10.85389 1.79622,-11.41711 6.80363,-0.56321 6.05293,14.99811 6.05293,14.99811 l -53.47391,14.63562 z" id="path6889"/><ellipse style="color:#000000;display:inline;overflow:visible;visibility:visible;fill:#ffffff;fill-opacity:1;fill-rule:nonzero;stroke:none;stroke-width:2.59126377;marker:none;enable-background:accumulate" id="path6891" transform="matrix(-0.97878933,-0.20486933,0.20486933,-0.97878933,-415.43789,922.63218)" cx="-148.45714" cy="505.67648" rx="4.8000002" ry="7.0285716"/><ellipse transform="matrix(-0.97878933,-0.20486933,0.20486933,-0.97878933,-403.90865,914.6433)" id="path6893" style="color:#000000;display:inline;overflow:visible;visibility:visible;fill:#ffffff;fill-opacity:1;fill-rule:nonzero;stroke:none;stroke-width:2.59126377;marker:none;enable-background:accumulate" cx="-148.45714" cy="505.67648" rx="4.8000002" ry="7.0285716"/><path id="path6895" d="m -257.43493,490.05922 -45.99112,15.31813 c 0,0 5.00739,10.85389 -1.79622,11.41711 -6.80363,0.56321 -6.05293,-14.99811 -6.05293,-14.99811 l 53.47391,-14.63562 z" style="color:#000000;display:inline;overflow:visible;visibility:visible;fill:#ffffff;fill-opacity:1;fill-rule:nonzero;stroke:none;stroke-width:2.59126377;marker:none;enable-background:accumulate"/><ellipse transform="matrix(0.97878933,0.20486933,-0.20486933,0.97878933,-26.67994,40.115699)" id="path6897" style="color:#000000;display:inline;overflow:visible;visibility:visible;fill:#ffffff;fill-opacity:1;fill-rule:nonzero;stroke:none;stroke-width:2.59126377;marker:none;enable-background:accumulate" cx="-148.45714" cy="505.67648" rx="4.8000002" ry="7.0285716"/><ellipse style="color:#000000;display:inline;overflow:visible;visibility:visible;fill:#ffffff;fill-opacity:1;fill-rule:nonzero;stroke:none;stroke-width:2.59126377;marker:none;enable-background:accumulate" id="path6899" transform="matrix(0.97878933,0.20486933,-0.20486933,0.97878933,-38.209184,48.104584)" cx="-148.45714" cy="505.67648" rx="4.8000002" ry="7.0285716"/></g></g></svg>