<svg xmlns="http://www.w3.org/2000/svg" version="1.1" xmlns:xlink="http://www.w3.org/1999/xlink" xmlns:svgjs="http://svgjs.dev/svgjs" width="1440" height="1000" preserveAspectRatio="none" viewBox="0 0 1440 1000"><g mask="url(&quot;#SvgjsMask1048&quot;)" fill="none"><rect width="1440" height="1000" x="0" y="0" fill="rgba(255, 255, 255, 1)"></rect><path d="M463 358L462 -39" stroke-width="8" stroke="url(&quot;#SvgjsLinearGradient1049&quot;)" stroke-linecap="round" class="Down"></path><path d="M614 295L613 897" stroke-width="6" stroke="url(&quot;#SvgjsLinearGradient1049&quot;)" stroke-linecap="round" class="Down"></path><path d="M285 581L284 183" stroke-width="10" stroke="url(&quot;#SvgjsLinearGradient1050&quot;)" stroke-linecap="round" class="Up"></path><path d="M754 164L753 769" stroke-width="6" stroke="url(&quot;#SvgjsLinearGradient1049&quot;)" stroke-linecap="round" class="Down"></path><path d="M1421 127L1420 544" stroke-width="6" stroke="url(&quot;#SvgjsLinearGradient1050&quot;)" stroke-linecap="round" class="Up"></path><path d="M531 488L530 1203" stroke-width="6" stroke="url(&quot;#SvgjsLinearGradient1049&quot;)" stroke-linecap="round" class="Down"></path><path d="M350 519L349 994" stroke-width="10" stroke="url(&quot;#SvgjsLinearGradient1049&quot;)" stroke-linecap="round" class="Down"></path><path d="M670 518L669 -131" stroke-width="6" stroke="url(&quot;#SvgjsLinearGradient1049&quot;)" stroke-linecap="round" class="Down"></path><path d="M1289 833L1288 1460" stroke-width="6" stroke="url(&quot;#SvgjsLinearGradient1049&quot;)" stroke-linecap="round" class="Down"></path><path d="M196 906L195 494" stroke-width="6" stroke="url(&quot;#SvgjsLinearGradient1050&quot;)" stroke-linecap="round" class="Up"></path><path d="M283 230L282 -118" stroke-width="6" stroke="url(&quot;#SvgjsLinearGradient1050&quot;)" stroke-linecap="round" class="Up"></path><path d="M13 722L12 1471" stroke-width="10" stroke="url(&quot;#SvgjsLinearGradient1050&quot;)" stroke-linecap="round" class="Up"></path><path d="M546 14L545 -287" stroke-width="6" stroke="url(&quot;#SvgjsLinearGradient1049&quot;)" stroke-linecap="round" class="Down"></path><path d="M278 397L277 -278" stroke-width="8" stroke="url(&quot;#SvgjsLinearGradient1049&quot;)" stroke-linecap="round" class="Down"></path><path d="M18 829L17 486" stroke-width="8" stroke="url(&quot;#SvgjsLinearGradient1049&quot;)" stroke-linecap="round" class="Down"></path><path d="M1043 677L1042 70" stroke-width="10" stroke="url(&quot;#SvgjsLinearGradient1049&quot;)" stroke-linecap="round" class="Down"></path><path d="M794 427L793 -165" stroke-width="10" stroke="url(&quot;#SvgjsLinearGradient1049&quot;)" stroke-linecap="round" class="Down"></path><path d="M1077 765L1076 1195" stroke-width="6" stroke="url(&quot;#SvgjsLinearGradient1049&quot;)" stroke-linecap="round" class="Down"></path><path d="M1316 26L1315 611" stroke-width="6" stroke="url(&quot;#SvgjsLinearGradient1049&quot;)" stroke-linecap="round" class="Down"></path><path d="M135 111L134 -506" stroke-width="6" stroke="url(&quot;#SvgjsLinearGradient1049&quot;)" stroke-linecap="round" class="Down"></path><path d="M237 227L236 480" stroke-width="6" stroke="url(&quot;#SvgjsLinearGradient1049&quot;)" stroke-linecap="round" class="Down"></path><path d="M1148 402L1147 128" stroke-width="8" stroke="url(&quot;#SvgjsLinearGradient1049&quot;)" stroke-linecap="round" class="Down"></path><path d="M1132 818L1131 1267" stroke-width="8" stroke="url(&quot;#SvgjsLinearGradient1050&quot;)" stroke-linecap="round" class="Up"></path><path d="M789 375L788 788" stroke-width="10" stroke="url(&quot;#SvgjsLinearGradient1050&quot;)" stroke-linecap="round" class="Up"></path><path d="M426 212L425 493" stroke-width="8" stroke="url(&quot;#SvgjsLinearGradient1049&quot;)" stroke-linecap="round" class="Down"></path><path d="M1301 42L1300 324" stroke-width="6" stroke="url(&quot;#SvgjsLinearGradient1049&quot;)" stroke-linecap="round" class="Down"></path><path d="M939 178L938 922" stroke-width="6" stroke="url(&quot;#SvgjsLinearGradient1049&quot;)" stroke-linecap="round" class="Down"></path><path d="M740 936L739 410" stroke-width="8" stroke="url(&quot;#SvgjsLinearGradient1049&quot;)" stroke-linecap="round" class="Down"></path><path d="M154 282L153 906" stroke-width="6" stroke="url(&quot;#SvgjsLinearGradient1050&quot;)" stroke-linecap="round" class="Up"></path><path d="M534 74L533 -475" stroke-width="10" stroke="url(&quot;#SvgjsLinearGradient1050&quot;)" stroke-linecap="round" class="Up"></path><path d="M783 990L782 1596" stroke-width="10" stroke="url(&quot;#SvgjsLinearGradient1050&quot;)" stroke-linecap="round" class="Up"></path><path d="M414 783L413 429" stroke-width="8" stroke="url(&quot;#SvgjsLinearGradient1049&quot;)" stroke-linecap="round" class="Down"></path><path d="M711 833L710 1526" stroke-width="8" stroke="url(&quot;#SvgjsLinearGradient1050&quot;)" stroke-linecap="round" class="Up"></path><path d="M465 93L464 -640" stroke-width="8" stroke="url(&quot;#SvgjsLinearGradient1050&quot;)" stroke-linecap="round" class="Up"></path><path d="M392 475L391 838" stroke-width="10" stroke="url(&quot;#SvgjsLinearGradient1050&quot;)" stroke-linecap="round" class="Up"></path><path d="M1373 320L1372 -282" stroke-width="10" stroke="url(&quot;#SvgjsLinearGradient1049&quot;)" stroke-linecap="round" class="Down"></path></g><defs><mask id="SvgjsMask1048"><rect width="1440" height="1000" fill="#ffffff"></rect></mask><linearGradient x1="0%" y1="0%" x2="0%" y2="100%" id="SvgjsLinearGradient1049"><stop stop-color="rgba(255, 144, 10, 0)" offset="0"></stop><stop stop-color="rgba(255, 144, 10, 1)" offset="1"></stop></linearGradient><linearGradient x1="0%" y1="100%" x2="0%" y2="0%" id="SvgjsLinearGradient1050"><stop stop-color="rgba(255, 144, 10, 0)" offset="0"></stop><stop stop-color="rgba(255, 144, 10, 1)" offset="1"></stop></linearGradient></defs></svg>