<svg width="353" height="46" viewBox="0 0 353 46" fill="none" xmlns="http://www.w3.org/2000/svg">
<path fill-rule="evenodd" clip-rule="evenodd" d="M276.424 32.2062C277.113 30.6142 277.458 28.8702 277.458 26.9742V21.0258C277.458 19.1443 277.113 17.4075 276.424 15.8155C275.735 14.209 274.778 12.834 273.553 11.6906C272.328 10.5328 270.873 9.62822 269.189 8.97693C267.52 8.32564 265.698 8 263.723 8H255.638C253.663 8 251.833 8.32564 250.148 8.97693C248.464 9.62822 247.009 10.5328 245.784 11.6906C244.559 12.834 243.595 14.209 242.89 15.8155C242.201 17.4075 241.857 19.1443 241.857 21.0258V26.9742C241.857 28.8702 242.201 30.6142 242.89 32.2062C243.595 33.7983 244.559 35.1732 245.784 36.3311C247.009 37.4889 248.464 38.3935 250.148 39.0448C251.833 39.6816 253.663 40 255.638 40H263.723C265.698 40 267.52 39.6816 269.189 39.0448C270.873 38.3935 272.328 37.4889 273.553 36.3311C274.778 35.1732 275.735 33.7983 276.424 32.2062ZM270.912 18.0081C271.294 18.9055 271.486 19.9114 271.486 21.0258V26.9742C271.486 28.0886 271.294 29.1018 270.912 30.0136C270.544 30.9109 270.016 31.6852 269.327 32.3365C268.638 32.9733 267.811 33.4726 266.846 33.8345C265.897 34.1818 264.84 34.3555 263.677 34.3555H255.638C254.474 34.3555 253.41 34.1818 252.445 33.8345C251.496 33.4726 250.677 32.9733 249.988 32.3365C249.299 31.6852 248.763 30.9109 248.38 30.0136C248.012 29.1018 247.829 28.0886 247.829 26.9742V21.0258C247.829 19.9114 248.012 18.9055 248.38 18.0081C248.763 17.0963 249.299 16.322 249.988 15.6852C250.677 15.0339 251.496 14.5346 252.445 14.1872C253.41 13.8254 254.474 13.6445 255.638 13.6445H263.723C264.871 13.6445 265.92 13.8254 266.869 14.1872C267.834 14.5346 268.653 15.0339 269.327 15.6852C270.016 16.322 270.544 17.0963 270.912 18.0081Z" fill="black"/>
<path fill-rule="evenodd" clip-rule="evenodd" d="M86.523 34.9634C86.7833 34.1673 86.9134 33.422 86.9134 32.7273V31.6418C86.9134 30.5418 86.7833 29.536 86.523 28.6242C86.2627 27.7123 85.9105 26.8946 85.4664 26.171C85.0224 25.4473 84.5018 24.8105 83.9046 24.2605C83.3227 23.7105 82.6949 23.2402 82.0212 22.8494C82.8021 21.8218 83.3687 20.7363 83.7208 19.5929C84.073 18.4351 84.2491 17.3569 84.2491 16.3582V15.2944C84.2491 14.0353 84.0041 12.9715 83.5141 12.1031C83.0395 11.2347 82.4346 10.5328 81.6996 9.99729C80.98 9.44731 80.1991 9.0493 79.3569 8.80326C78.5147 8.55721 77.7262 8.43419 76.9912 8.43419H57.0088C56.5801 8.43419 56.182 8.50656 55.8145 8.65129C55.447 8.79602 55.1254 8.99864 54.8498 9.25916C54.5895 9.51967 54.3828 9.82361 54.2297 10.171C54.0766 10.5183 54 10.8874 54 11.2782V36.7218C54 37.1271 54.0766 37.5034 54.2297 37.8507C54.3828 38.1981 54.5895 38.502 54.8498 38.7626C55.1254 39.0086 55.447 39.204 55.8145 39.3487C56.182 39.4934 56.5801 39.5658 57.0088 39.5658H79.6784C81.0106 39.5658 82.136 39.3415 83.0548 38.8928C83.9735 38.4297 84.7161 37.858 85.2827 37.1777C85.8645 36.4975 86.278 35.7594 86.523 34.9634ZM80.5742 29.6662C80.8192 30.2451 80.9417 30.9037 80.9417 31.6418V32.6839C80.9417 32.9878 80.8958 33.2266 80.8039 33.4003C80.712 33.5739 80.6048 33.697 80.4823 33.7693C80.3598 33.8417 80.222 33.8851 80.0689 33.8996C79.9158 33.9141 79.7856 33.9213 79.6784 33.9213H59.9717V14.0787H76.9912C77.818 14.0787 78.2314 14.4839 78.2314 15.2944V16.3582C78.2314 17.0963 78.109 17.7621 77.864 18.3555C77.6343 18.9344 77.2974 19.4337 76.8534 19.8535C76.4093 20.2732 75.8734 20.5988 75.2456 20.8304C74.6178 21.0475 73.9134 21.156 73.1325 21.156H70.1773V26.844H75.8198C76.6007 26.844 77.3051 26.9597 77.9329 27.1913C78.5607 27.4084 79.0966 27.7268 79.5406 28.1465C79.9847 28.5663 80.3292 29.0728 80.5742 29.6662Z" fill="black"/>
<path d="M118.472 39.5658H124.443V11.2782C124.443 10.8874 124.367 10.5183 124.214 10.171C124.061 9.82361 123.846 9.51967 123.571 9.25916C123.295 8.99864 122.973 8.79602 122.606 8.65129C122.239 8.50656 121.848 8.43419 121.435 8.43419H107.975C105.602 8.43419 103.412 8.81773 101.406 9.5848C99.4005 10.3519 97.6625 11.4229 96.1926 12.7978C94.7226 14.1728 93.5742 15.8155 92.7473 17.7259C91.9205 19.6364 91.5071 21.7277 91.5071 24V39.5658H97.4788V31.924H97.4892V26.2795H97.4788V24C97.4788 22.4224 97.7085 21.0837 98.1678 19.9837C98.6425 18.8693 99.2397 17.943 99.9594 17.2049C100.679 16.4668 101.468 15.8878 102.325 15.4681C103.183 15.0484 103.994 14.7372 104.76 14.5346C105.541 14.332 106.222 14.209 106.804 14.1655C107.401 14.1076 107.792 14.0787 107.975 14.0787H118.472V26.2795H118.461V31.924H118.472V39.5658Z" fill="black"/>
<path d="M160.894 39.5658H139.35C138.799 39.5658 138.201 39.5079 137.558 39.3921C136.931 39.2619 136.303 39.0665 135.675 38.806C135.062 38.5455 134.473 38.2126 133.906 37.8073C133.34 37.3876 132.835 36.8883 132.39 36.3094C131.962 35.716 131.617 35.0357 131.357 34.2687C131.097 33.4871 130.966 32.6115 130.966 31.6418V16.3582C130.966 15.8372 131.028 15.28 131.15 14.6866C131.288 14.0787 131.495 13.4853 131.77 12.9064C132.046 12.313 132.406 11.7485 132.85 11.213C133.294 10.6775 133.822 10.2071 134.435 9.8019C135.062 9.38218 135.782 9.0493 136.594 8.80326C137.405 8.55721 138.324 8.43419 139.35 8.43419H160.894V14.0787H139.35C138.569 14.0787 137.972 14.2741 137.558 14.6649C137.145 15.0556 136.938 15.6346 136.938 16.4016V31.6418C136.938 32.3654 137.145 32.9299 137.558 33.3351C137.987 33.7259 138.584 33.9213 139.35 33.9213H160.894V39.5658Z" fill="black"/>
<path d="M192.59 39.5658H201.065L184.138 24L201.065 8.43419H192.59L179.154 21.156H174.951V26.844H179.154L192.59 39.5658Z" fill="black"/>
<path d="M166.59 39.5658H172.562V8.43419H166.59V39.5658Z" fill="black"/>
<path fill-rule="evenodd" clip-rule="evenodd" d="M237.677 32.7273C237.677 33.422 237.547 34.1673 237.286 34.9634C237.041 35.7594 236.628 36.4975 236.046 37.1777C235.479 37.858 234.737 38.4297 233.818 38.8928C232.899 39.3415 231.774 39.5658 230.442 39.5658H207.772C207.343 39.5658 206.945 39.4934 206.578 39.3487C206.21 39.204 205.889 39.0086 205.613 38.7626C205.353 38.502 205.146 38.1981 204.993 37.8507C204.84 37.5034 204.763 37.1271 204.763 36.7218V11.2782C204.763 10.8874 204.84 10.5183 204.993 10.171C205.146 9.82361 205.353 9.51967 205.613 9.25916C205.889 8.99864 206.21 8.79602 206.578 8.65129C206.945 8.50656 207.343 8.43419 207.772 8.43419H227.754C228.489 8.43419 229.278 8.55721 230.12 8.80326C230.962 9.0493 231.743 9.44731 232.463 9.99729C233.198 10.5328 233.803 11.2347 234.277 12.1031C234.767 12.9715 235.012 14.0353 235.012 15.2944V16.3582C235.012 17.3569 234.836 18.4351 234.484 19.5929C234.132 20.7363 233.565 21.8218 232.784 22.8494C233.458 23.2402 234.086 23.7105 234.668 24.2605C235.265 24.8105 235.786 25.4473 236.23 26.171C236.674 26.8946 237.026 27.7123 237.286 28.6242C237.547 29.536 237.677 30.5418 237.677 31.6418V32.7273ZM231.705 31.6418C231.705 30.9037 231.582 30.2451 231.337 29.6662C231.092 29.0728 230.748 28.5663 230.304 28.1465C229.86 27.7268 229.324 27.4084 228.696 27.1913C228.068 26.9597 227.364 26.844 226.583 26.844H221.094V21.156H223.896C224.677 21.156 225.381 21.0475 226.009 20.8304C226.637 20.5988 227.173 20.2732 227.617 19.8535C228.061 19.4337 228.398 18.9344 228.627 18.3555C228.872 17.7621 228.995 17.0963 228.995 16.3582V15.2944C228.995 14.4839 228.581 14.0787 227.754 14.0787H210.735V33.9213H230.442C230.549 33.9213 230.679 33.9141 230.832 33.8996C230.985 33.8851 231.123 33.8417 231.246 33.7693C231.368 33.697 231.475 33.5739 231.567 33.4003C231.659 33.2266 231.705 32.9878 231.705 32.6839V31.6418Z" fill="black"/>
<path d="M316.274 37.156C316.274 37.5613 316.19 37.9376 316.021 38.2849C315.868 38.6323 315.654 38.9362 315.378 39.1967C315.118 39.4428 314.804 39.6382 314.436 39.7829C314.069 39.9276 313.678 40 313.265 40C312.898 40 312.522 39.9349 312.14 39.8046C311.772 39.6744 311.443 39.4645 311.152 39.175L289.332 17.6391V39.5658H283.36V10.844C283.36 10.265 283.529 9.74401 283.866 9.28087C284.218 8.80326 284.662 8.44867 285.198 8.2171C285.764 8 286.346 7.94934 286.943 8.06513C287.541 8.16644 288.054 8.42696 288.482 8.84668L310.302 30.3609V8.43419H316.274V37.156Z" fill="black"/>
<path d="M340.651 26.844H350.313V21.156H340.651V26.844Z" fill="black"/>
<path d="M331.456 39.5658H353V33.9213H331.502C330.706 33.9213 330.101 33.7259 329.687 33.3351C329.274 32.9444 329.067 32.3799 329.067 31.6418V14.0787H353V8.43419H326.104C325.675 8.43419 325.277 8.50656 324.91 8.65129C324.542 8.79602 324.221 8.99864 323.945 9.25916C323.685 9.51967 323.478 9.82361 323.325 10.171C323.172 10.5183 323.095 10.8874 323.095 11.2782V31.6418C323.095 33.1036 323.371 34.341 323.922 35.3541C324.489 36.3528 325.186 37.1705 326.012 37.8073C326.855 38.4297 327.766 38.8783 328.746 39.1533C329.726 39.4283 330.629 39.5658 331.456 39.5658Z" fill="black"/>
<path fill-rule="evenodd" clip-rule="evenodd" d="M21.7378 6.35338C22.1559 6.1818 22.9127 5.9214 23.8112 6.02283C24.942 6.1505 25.8728 6.79774 26.4108 7.71763C26.417 7.7282 26.4233 7.73889 26.4297 7.74972C26.8119 8.39894 27.4711 9.51855 27.4782 10.854C27.4804 11.2618 27.423 11.6419 27.3304 11.9908C27.4926 12.0204 27.6522 12.0552 27.8079 12.095C28.3162 12.2252 29.0481 12.4751 29.6905 12.984C29.7114 13.0005 29.732 13.0173 29.7524 13.0344L29.7576 13.0388C29.782 13.0591 29.8475 13.1138 29.9128 13.1725C29.9873 13.2395 30.1207 13.3637 30.2633 13.5336C30.6185 13.9568 30.8849 14.4879 30.9865 15.1089C31.0645 15.5861 31.02 15.9921 31.0032 16.1418C30.9849 16.3051 30.9561 16.4883 30.9351 16.6211L30.9303 16.6518L30.9238 16.6913C30.7438 17.7443 30.3285 18.8966 29.5536 19.838C30.8772 21.4332 32.8562 23.6605 34.1175 24.9884C35.6694 26.6162 36.6425 27.7406 37.3683 28.5793C37.5973 28.8439 37.8017 29.08 37.9918 29.2945C38.7319 30.1295 39.3719 30.7795 40.8664 31.9672C41.8676 32.7628 42.2544 34.1054 41.8299 35.3117C41.656 35.806 41.3752 36.2103 41.2694 36.3623C41.1097 36.5918 40.9249 36.8295 40.7384 37.0569C40.3619 37.516 39.8901 38.0406 39.3894 38.5568C38.5563 39.4156 37.3568 40.5513 36.2449 41.2329C35.5727 41.7656 34.706 42.2155 34.1413 42.505C33.6555 42.754 33.2927 42.932 32.9538 43.0981C32.5931 43.275 32.2595 43.4386 31.8336 43.6605C30.5469 44.331 28.9648 43.9844 28.0761 42.8376C23.7203 37.2165 22.0507 34.2707 20.0124 29.5635L20.0055 29.5476C19.928 29.3658 19.8234 29.1337 19.7023 28.8728C19.4985 29.006 19.2353 29.1579 18.9369 29.2761C18.9141 29.2851 18.8912 29.2938 18.8682 29.3023C18.5938 29.4032 18.1516 29.5507 17.5872 29.5835C17.0726 29.6133 16.6295 29.5356 16.3785 29.4891L16.3668 29.487C16.2598 29.4667 16.1396 29.4461 16.0386 29.4304C15.9882 29.4226 15.9511 29.4174 15.9284 29.4144C15.9219 29.4136 15.9172 29.4131 15.9172 29.4131L15.9189 29.4132C15.9215 29.4135 15.9443 29.416 15.9803 29.4184C15.9536 29.4166 15.9268 29.4144 15.9001 29.4119C14.9894 29.3258 14.2348 28.893 13.6946 28.286C13.3377 27.885 13.1038 27.4324 12.9887 27.2064C12.7269 26.7052 12.4363 25.9722 12.2749 25.3807L12.0808 24.7217C11.9082 24.1356 11.9188 23.5111 12.1105 22.9319C11.6183 22.8039 11.2563 22.6146 11.0101 22.4793L10.975 22.4597C10.4251 22.1477 9.91804 21.7072 9.59387 21.3824C9.43677 21.2251 9.18461 20.9587 8.96932 20.6334L8.96652 20.6292C8.90583 20.5376 8.70551 20.2351 8.56657 19.7968C8.3301 19.4605 8.12229 19.0265 8.03734 18.4826C7.82967 17.1532 8.50065 16.2032 8.92811 15.7724C9.62694 15.0682 10.5121 14.825 10.8601 14.7367C11.4885 14.57 12.193 14.3189 12.8091 14.0483C13.0413 13.9464 13.2468 13.8478 13.4202 13.7575C13.3955 13.7016 13.3684 13.6412 13.3388 13.5759L13.3333 13.5638C13.3272 13.5502 13.321 13.5363 13.3147 13.5222C13.1746 13.2099 12.9659 12.7448 12.8474 12.2491C12.6955 11.6135 12.7196 11.0835 12.7428 10.736C12.756 10.488 12.7856 9.9351 12.9902 9.36482C13.2547 8.62769 13.6882 8.16657 13.9 7.95032L13.9252 7.92491C15.0817 6.77178 16.6107 6.61821 17.7606 6.91342C18.525 7.10966 19.2442 7.52159 19.8156 8.11487C20.1539 7.50795 20.7276 6.77266 21.7264 6.35806L21.7378 6.35338ZM17.9534 11.0224C18.0461 10.8997 18.0275 10.7945 17.8885 10.5227C17.5822 9.92935 16.9026 9.65473 16.3834 9.83643C16.3034 9.86444 16.2271 9.90331 16.1567 9.95353C16.117 9.98182 16.0791 10.0137 16.0434 10.0493C15.8116 10.286 15.7653 10.4 15.7374 10.9172C15.7173 11.2124 15.719 11.3861 15.7783 11.6026C15.7791 11.6053 15.7798 11.6081 15.7806 11.6108C15.8309 11.7911 15.921 12.0021 16.0712 12.3374C16.1259 12.458 16.1758 12.5703 16.2212 12.6755C16.2273 12.6895 16.2333 12.7034 16.2392 12.7171L16.2399 12.7188C16.4085 13.1122 16.5128 13.403 16.5689 13.6493L16.5694 13.6515C16.6284 13.9121 16.6334 14.123 16.6033 14.3534C16.6022 14.3622 16.601 14.3711 16.5997 14.38C16.5665 14.643 16.4961 14.8744 16.3835 15.0875C16.2447 15.3503 16.0417 15.5853 15.7653 15.8177C15.3835 16.1324 14.6917 16.5057 13.889 16.85C13.8532 16.8653 13.8172 16.8806 13.781 16.8958C13.0908 17.186 12.3269 17.4524 11.6116 17.6411C11.5393 17.6594 11.4731 17.6786 11.4132 17.6987L11.4112 17.6994C11.3027 17.7359 11.2148 17.7751 11.1486 17.8158C11.1359 17.8236 11.124 17.8314 11.1129 17.8393C10.9688 17.9418 10.96 18.0518 11.1016 18.1496C11.1601 18.1898 11.223 18.2602 11.2803 18.341C11.293 18.3588 11.3054 18.3771 11.3174 18.3958C11.4407 18.5876 11.5231 18.8106 11.4447 18.8334C11.3991 18.8486 11.4257 18.9181 11.4977 19.0157C11.5022 19.0217 11.5069 19.0279 11.5117 19.0342C11.6354 19.195 11.8702 19.4226 12.1082 19.6106C12.1179 19.6183 12.1276 19.6259 12.1373 19.6334C12.2471 19.7186 12.3567 19.7944 12.4553 19.8503C12.7023 19.9861 12.8426 20.0445 13.1143 20.0693C13.1269 20.0704 13.1397 20.0715 13.1529 20.0725C13.2579 20.0805 13.3822 20.0843 13.5379 20.0859C13.6216 20.0868 13.7145 20.087 13.8182 20.087C13.8265 20.087 13.8347 20.087 13.8429 20.087C13.9617 20.0869 14.0664 20.0862 14.1595 20.0845C14.1673 20.0843 14.175 20.0842 14.1826 20.084C14.6863 20.0735 14.8429 20.0305 15.0884 19.8854C15.132 19.8591 15.1829 19.8337 15.2387 19.8097C15.2461 19.8065 15.2536 19.8033 15.2611 19.8002C15.4637 19.7163 15.7258 19.6511 15.9507 19.6312C16.609 19.5698 16.6646 19.6925 16.2937 20.3675C16.2409 20.4675 16.1609 20.6466 16.0665 20.8729C16.0649 20.8767 16.0633 20.8804 16.0618 20.8842C16.0147 20.9971 15.9642 21.1215 15.9117 21.2536C15.9097 21.2585 15.9077 21.2635 15.9058 21.2684C15.7702 21.6097 15.622 22.0005 15.4871 22.3751L14.9586 23.8742L15.1626 24.5667C15.2646 24.9524 15.4871 25.5135 15.654 25.8291C15.8858 26.285 15.997 26.4077 16.1825 26.4252C16.3123 26.434 16.6461 26.4866 16.9242 26.5392C17.3507 26.6181 17.499 26.6093 17.8328 26.4866C17.9641 26.4346 18.1497 26.3095 18.3485 26.149C18.3519 26.1463 18.3552 26.1435 18.3586 26.1408C18.7611 25.8143 19.2147 25.3463 19.3812 25.0489C19.4739 24.8736 19.6964 24.7245 20.1229 24.558C20.4567 24.4177 20.7441 24.33 20.7627 24.3476C20.8677 24.4667 21.3355 25.3647 21.8124 26.3345C21.8295 26.3692 21.8465 26.404 21.8636 26.4388C21.8907 26.4942 21.9178 26.5497 21.9448 26.6052L21.9455 26.6067C22.2654 27.2639 22.5746 27.9239 22.7653 28.3714C24.6938 32.8248 26.2288 35.556 30.4474 41C30.8305 40.8004 31.2547 40.5911 31.6828 40.3798C32.8476 39.8051 34.0408 39.2163 34.5099 38.772C35.2166 38.3894 36.2094 37.51 37.083 36.6244C37.2472 36.458 37.4071 36.2913 37.5602 36.1277C38.3176 35.3181 38.9061 34.5827 39 34.3159C36.9678 32.7009 36.2769 31.9027 35.0737 30.5126C34.3502 29.6767 33.4414 28.6267 31.9442 27.0564C30.5752 25.6153 28.4155 23.1802 27.0483 21.5156C27.0266 21.4892 27.0052 21.4631 26.9839 21.4371C26.8748 21.3042 26.7609 21.1666 26.6458 21.0281C26.115 20.39 25.5555 19.7336 25.2965 19.4383C25.2869 19.4277 25.2773 19.4171 25.2678 19.4065C25.2613 19.3992 25.2548 19.392 25.2483 19.3848C24.9467 19.048 24.7124 18.7619 24.7124 18.737C24.7124 18.7107 24.972 18.7019 25.2872 18.7107C25.6373 18.7309 25.9225 18.712 26.1755 18.6447C26.1882 18.6413 26.2008 18.6378 26.2133 18.6342C26.4934 18.5532 26.7349 18.4107 26.9839 18.1934C27.1701 18.0309 27.3369 17.824 27.4801 17.5812C27.5021 17.5439 27.5236 17.5057 27.5444 17.4667C27.5461 17.4636 27.5478 17.4605 27.5494 17.4573C27.742 17.0951 27.8851 16.663 27.9667 16.1859C28.0687 15.5372 28.0687 15.5372 27.8276 15.3355C27.4846 15.0638 26.7428 14.8709 26.0011 14.8709C25.9036 14.8709 25.8182 14.8724 25.7405 14.8764C25.39 14.8946 25.1955 14.9656 24.7402 15.1953C24.6381 15.2474 24.5261 15.3004 24.4139 15.3507C24.1489 15.4693 23.8821 15.573 23.7388 15.6161L23.3772 15.7213L23.1547 15.0988C23.0574 14.8153 22.9959 14.5777 22.9789 14.352C22.9589 14.0867 23.0004 13.8381 23.1176 13.5511C23.1215 13.5414 23.1255 13.5318 23.1296 13.5221C23.2182 13.3123 23.3466 13.0814 23.5203 12.8086C23.5234 12.8038 23.5264 12.7991 23.5294 12.7943C23.6207 12.6515 23.7242 12.4973 23.8408 12.3286C23.85 12.3152 23.8591 12.302 23.868 12.2888C23.9675 12.1426 24.0549 12.0086 24.1301 11.8833C24.1332 11.8783 24.1362 11.8732 24.1392 11.8682C24.1445 11.8593 24.1497 11.8505 24.1548 11.8418C24.6759 10.9554 24.569 10.5033 23.8223 9.23402C23.6647 8.96226 23.368 8.92719 22.8766 9.12882C22.6066 9.24089 22.4114 9.51657 22.1716 10.1914C22.1695 10.1971 22.1675 10.2029 22.1654 10.2087C22.0881 10.4277 22.0061 10.688 21.9153 10.9976C21.9144 11.0009 21.9135 11.0041 21.9125 11.0073C21.8913 11.0798 21.8696 11.1549 21.8474 11.2328C21.8306 11.2934 21.8139 11.3524 21.7971 11.41C21.7236 11.6619 21.65 11.8854 21.5734 12.0831C21.5326 12.1882 21.4911 12.286 21.4483 12.3769C21.1167 13.082 20.711 13.3731 20.0424 13.4386C19.9 13.4526 19.7458 13.4563 19.5777 13.4516C19.5679 13.4514 19.558 13.4511 19.5481 13.4507L18.8805 13.4244L18.6302 12.8108C18.5381 12.5843 18.4053 12.2886 18.283 12.0358C18.2206 11.9069 18.1611 11.7892 18.111 11.6974C18.0662 11.6109 18.0296 11.5371 18.0004 11.4732C17.9991 11.4704 17.9979 11.4675 17.9966 11.4647C17.9053 11.2625 17.8909 11.1613 17.9306 11.0668C17.935 11.0565 17.94 11.0462 17.9456 11.0359C17.9481 11.0314 17.9507 11.0269 17.9534 11.0224ZM9.6683 16.4141C9.92785 16.2215 10.2382 16.06 10.6066 15.9528C10.5692 15.9637 10.532 15.9753 10.495 15.9877C10.2161 16.0807 9.93282 16.2219 9.6683 16.4141Z" fill="black"/>
<path fill-rule="evenodd" clip-rule="evenodd" d="M23 42C33.4934 42 42 33.4934 42 23C42 12.5066 33.4934 4 23 4C12.5066 4 4 12.5066 4 23C4 33.4934 12.5066 42 23 42ZM46 23C46 35.7025 35.7025 46 23 46C10.2975 46 0 35.7025 0 23C0 10.2975 10.2975 0 23 0C35.7025 0 46 10.2975 46 23Z" fill="black"/>
</svg>
