<svg id="Capa_1" data-name="Capa 1" xmlns="http://www.w3.org/2000/svg" viewBox="0 0 512 512"><defs><style>.cls-1{fill:#fff;}.cls-2{fill:#fdd21a;}.cls-3{fill:#ce1327;}.cls-4{fill:#1c3f8a;}</style></defs><circle class="cls-1" cx="256" cy="256" r="256"/><path d="M154.29,349.9c-1.93.48-4.47,1-7.64,1.53a66.1,66.1,0,0,1-11,.82,23.19,23.19,0,0,1-9.13-1.59,14.63,14.63,0,0,1-6-4.47,18.24,18.24,0,0,1-3.26-6.82,36,36,0,0,1-1-8.72V304.28h8.4v24.58q0,8.58,2.72,12.28c1.8,2.47,4.85,3.71,9.12,3.71.91,0,1.84,0,2.8-.09s1.87-.14,2.71-.22,1.61-.18,2.31-.28a7.06,7.06,0,0,0,1.49-.31V304.27h8.4Z"/><path d="M174.8,306.35a22.58,22.58,0,0,1,4.65-2.09,21.92,21.92,0,0,1,7.18-1.09,21.23,21.23,0,0,1,9,1.83,18.65,18.65,0,0,1,6.65,5.06,22.28,22.28,0,0,1,4.11,7.77,33.4,33.4,0,0,1,1.39,9.94A29.54,29.54,0,0,1,206.1,338a21.66,21.66,0,0,1-4.74,7.73,21,21,0,0,1-7.41,4.88,26.39,26.39,0,0,1-9.76,1.71,59.36,59.36,0,0,1-10.39-.83q-4.52-.83-7.4-1.63V282.59l8.4-1.45Zm0,37.58a25.26,25.26,0,0,0,3.57.68,42.25,42.25,0,0,0,5.73.32,13.92,13.92,0,0,0,10.84-4.47Q199,336,199,327.76a30.34,30.34,0,0,0-.72-6.78,15.43,15.43,0,0,0-2.35-5.46,11.44,11.44,0,0,0-4.19-3.62,13.75,13.75,0,0,0-6.18-1.31,16.7,16.7,0,0,0-6.33,1.18,17.16,17.16,0,0,0-4.44,2.44Z"/><path d="M254.67,349.9q-2.89.72-7.64,1.53a65.94,65.94,0,0,1-11,.82,23,23,0,0,1-9.12-1.59,14.66,14.66,0,0,1-6-4.47,18.07,18.07,0,0,1-3.25-6.82,35.52,35.52,0,0,1-1-8.72V304.28h8.4v24.58q0,8.58,2.71,12.28t9.13,3.71c.9,0,1.83,0,2.8-.09s1.86-.14,2.71-.22,1.61-.18,2.3-.28a6.81,6.81,0,0,0,1.49-.31V304.27h8.41Z"/><path d="M266.77,305.63c1.93-.48,4.49-1,7.69-1.54a65.31,65.31,0,0,1,11-.81,23.74,23.74,0,0,1,9.31,1.58,14.57,14.57,0,0,1,5.93,4.42,17.28,17.28,0,0,1,3.12,6.83,40.27,40.27,0,0,1,.9,8.76v26.37h-8.4V326.68a39.91,39.91,0,0,0-.59-7.41,12.57,12.57,0,0,0-1.94-5,7.74,7.74,0,0,0-3.62-2.76,15.86,15.86,0,0,0-5.6-.83c-.9,0-1.83,0-2.8.09s-1.88.13-2.75.22-1.68.2-2.35.32l-1.49.27v39.64h-8.41Z"/><path d="M324.14,304.27h17.8v7.05h-17.8V333a26,26,0,0,0,.55,5.83,8.75,8.75,0,0,0,1.62,3.61A5.84,5.84,0,0,0,329,344.3a12.11,12.11,0,0,0,3.79.54A18.09,18.09,0,0,0,339,344c1.51-.56,2.53-1,3.08-1.22l1.8,6.87a33.62,33.62,0,0,1-4.47,1.63,24.89,24.89,0,0,1-7.28,1,22,22,0,0,1-7.9-1.22,11.52,11.52,0,0,1-5-3.66,14.56,14.56,0,0,1-2.67-6,40.23,40.23,0,0,1-.77-8.27V291.18l8.41-1.44Z"/><path d="M387.66,349.9c-1.93.48-4.47,1-7.64,1.53a66.1,66.1,0,0,1-11,.82,23.16,23.16,0,0,1-9.13-1.59,14.63,14.63,0,0,1-6-4.47,18.07,18.07,0,0,1-3.25-6.82,35.53,35.53,0,0,1-1-8.72V304.28h8.4v24.58q0,8.58,2.72,12.28t9.12,3.71c.91,0,1.84,0,2.8-.09s1.87-.13,2.71-.22,1.61-.18,2.31-.28a6.81,6.81,0,0,0,1.49-.31V304.27h8.4Z"/><path d="M144.54,401.14A17.53,17.53,0,0,1,138,400a13.94,13.94,0,0,1-5.07-3.45,15.42,15.42,0,0,1-3.28-5.6,22.83,22.83,0,0,1-1.16-7.61,20.77,20.77,0,0,1,1.3-7.62,16.48,16.48,0,0,1,3.53-5.6,15,15,0,0,1,5.18-3.45,16.78,16.78,0,0,1,6.31-1.19,22.1,22.1,0,0,1,3.82.3,24.24,24.24,0,0,1,3,.69,14.31,14.31,0,0,1,2.05.79,10.92,10.92,0,0,1,1.08.59l-1.38,3.95a7.08,7.08,0,0,0-1.28-.65c-.56-.23-1.19-.46-1.9-.69a16.1,16.1,0,0,0-2.32-.56,14.28,14.28,0,0,0-2.54-.22,12.31,12.31,0,0,0-4.88.93,10.18,10.18,0,0,0-3.7,2.71,12.3,12.3,0,0,0-2.34,4.32,18.68,18.68,0,0,0-.81,5.7,20.26,20.26,0,0,0,.71,5.57,12.2,12.2,0,0,0,2.15,4.31A9.62,9.62,0,0,0,140,396a11.85,11.85,0,0,0,5,1,18.36,18.36,0,0,0,5.47-.69,25.89,25.89,0,0,0,3.26-1.24l1.23,4a6.86,6.86,0,0,1-1.23.61,17.12,17.12,0,0,1-2.22.72,27.1,27.1,0,0,1-3.11.59A28.74,28.74,0,0,1,144.54,401.14Z"/><path d="M158.06,383.29a21.3,21.3,0,0,1,1.3-7.75,16,16,0,0,1,3.55-5.59,14.6,14.6,0,0,1,5.23-3.38,17.6,17.6,0,0,1,6.34-1.14,17.11,17.11,0,0,1,6.24,1.14,14.46,14.46,0,0,1,5.15,3.38,16.3,16.3,0,0,1,3.53,5.59,23.72,23.72,0,0,1,0,15.49,16.3,16.3,0,0,1-3.53,5.59,14.46,14.46,0,0,1-5.15,3.38,17.11,17.11,0,0,1-6.24,1.14,17.6,17.6,0,0,1-6.34-1.14,14.6,14.6,0,0,1-5.23-3.38,16,16,0,0,1-3.55-5.59A21.28,21.28,0,0,1,158.06,383.29Zm5,0a18.8,18.8,0,0,0,.79,5.64,12.55,12.55,0,0,0,2.24,4.32,9.82,9.82,0,0,0,3.55,2.73,11.2,11.2,0,0,0,4.71,1,11,11,0,0,0,4.68-1,9.83,9.83,0,0,0,3.53-2.73,12.55,12.55,0,0,0,2.24-4.32,20.56,20.56,0,0,0,0-11.29,12.64,12.64,0,0,0-2.24-4.32,9.83,9.83,0,0,0-3.53-2.73,11,11,0,0,0-4.68-1,11.2,11.2,0,0,0-4.71,1,9.82,9.82,0,0,0-3.55,2.73,12.64,12.64,0,0,0-2.24,4.32A18.82,18.82,0,0,0,163.09,383.29Z"/><path d="M218.37,396.26v4.14H197.8V366.22h4.79v30Z"/><path d="M219.8,383.29a21.09,21.09,0,0,1,1.31-7.75,15.9,15.9,0,0,1,3.55-5.59,14.47,14.47,0,0,1,5.22-3.38,17.6,17.6,0,0,1,6.34-1.14,17.11,17.11,0,0,1,6.24,1.14,14.46,14.46,0,0,1,5.15,3.38,16.15,16.15,0,0,1,3.53,5.59,23.72,23.72,0,0,1,0,15.49,16.15,16.15,0,0,1-3.53,5.59,14.46,14.46,0,0,1-5.15,3.38,17.11,17.11,0,0,1-6.24,1.14,17.6,17.6,0,0,1-6.34-1.14,14.47,14.47,0,0,1-5.22-3.38,15.9,15.9,0,0,1-3.55-5.59A21.07,21.07,0,0,1,219.8,383.29Zm5,0a18.8,18.8,0,0,0,.79,5.64,12.55,12.55,0,0,0,2.24,4.32,9.82,9.82,0,0,0,3.55,2.73,11.2,11.2,0,0,0,4.71,1,11,11,0,0,0,4.69-1,9.88,9.88,0,0,0,3.52-2.73,12.74,12.74,0,0,0,2.25-4.32,20.56,20.56,0,0,0,0-11.29,12.83,12.83,0,0,0-2.25-4.32,9.88,9.88,0,0,0-3.52-2.73,11,11,0,0,0-4.69-1,11.2,11.2,0,0,0-4.71,1,9.82,9.82,0,0,0-3.55,2.73,12.64,12.64,0,0,0-2.24,4.32A18.82,18.82,0,0,0,224.83,383.29Z"/><path d="M274.88,395.66c-.33-.79-.76-1.79-1.3-3s-1.13-2.53-1.75-3.94-1.29-2.87-2-4.36l-2-4.25c-.62-1.33-1.21-2.52-1.75-3.57s-1-1.86-1.31-2.42q-.54,5.82-.88,12.6t-.6,13.69h-4.68q.19-4.44.44-8.95t.57-8.88c.21-2.91.44-5.74.69-8.51s.52-5.37.81-7.84h4.2c.88,1.45,1.84,3.16,2.86,5.13s2,4,3.05,6.19,2,4.31,3,6.46l2.62,5.89c.79-1.77,1.66-3.74,2.61-5.89s1.94-4.31,3-6.46,2-4.22,3.06-6.19,2-3.68,2.86-5.13h4.19q1.68,16.53,2.51,34.18h-4.68q-.26-6.91-.59-13.69t-.89-12.6c-.33.56-.77,1.37-1.31,2.42s-1.12,2.24-1.75,3.57-1.29,2.75-2,4.25-1.37,2.95-2,4.36L280,392.65c-.55,1.22-1,2.22-1.31,3Z"/><path d="M311.72,400.69c-.69,0-1.44,0-2.24-.05s-1.61-.08-2.42-.14-1.6-.15-2.39-.25a19.73,19.73,0,0,1-2.17-.39V366.72a17.55,17.55,0,0,1,2.17-.4c.79-.1,1.58-.18,2.39-.25s1.6-.11,2.39-.14,1.53-.05,2.22-.05a33.57,33.57,0,0,1,5.55.44,14.29,14.29,0,0,1,4.49,1.5,8.17,8.17,0,0,1,3,2.79,7.86,7.86,0,0,1,1.08,4.24,7.52,7.52,0,0,1-1.33,4.61,8,8,0,0,1-3.55,2.69,10.34,10.34,0,0,1,4.79,2.81,7.72,7.72,0,0,1,1.77,5.43,8.73,8.73,0,0,1-3.77,7.71Q319.9,400.69,311.72,400.69Zm-4.49-20.07h5a22.42,22.42,0,0,0,3.36-.24,8.27,8.27,0,0,0,2.73-.89,5,5,0,0,0,1.83-1.68,4.77,4.77,0,0,0,.66-2.61,4.3,4.3,0,0,0-.69-2.49,4.9,4.9,0,0,0-1.9-1.63,10,10,0,0,0-2.83-.91,19.1,19.1,0,0,0-3.45-.3c-1.22,0-2.17,0-2.86.05s-1.32.08-1.88.15Zm0,3.85v12l1.28.1c.43,0,.93.06,1.51.07s1.24,0,2,0a28.65,28.65,0,0,0,4-.27,11.25,11.25,0,0,0,3.32-1,5.79,5.79,0,0,0,2.3-1.93,5.3,5.3,0,0,0,.86-3.1,5.76,5.76,0,0,0-.64-2.84,4.77,4.77,0,0,0-1.85-1.85,9,9,0,0,0-2.89-1,22.29,22.29,0,0,0-3.74-.29Z"/><path d="M334.21,366.22H339V400.4h-4.78Z"/><path d="M370.31,400.4c-.56-1.48-1.09-2.94-1.58-4.37l-1.53-4.36H351.71l-3.1,8.73h-5q2-5.43,3.69-10t3.38-8.75c1.1-2.76,2.2-5.4,3.28-7.92s2.22-5,3.4-7.47h4.39c1.19,2.47,2.32,5,3.41,7.47s2.17,5.16,3.28,7.92,2.22,5.68,3.37,8.75,2.39,6.42,3.7,10Zm-4.49-12.68c-1.05-2.86-2.1-5.63-3.13-8.31s-2.12-5.25-3.23-7.71q-1.74,3.69-3.28,7.71t-3.09,8.31Z"/><circle class="cls-2" cx="275.07" cy="173.07" r="23.24"/><circle class="cls-3" cx="371.87" cy="122.1" r="23.24"/><path class="cls-4" d="M327.48,232.88a56.64,56.64,0,0,1-38.6-29.44A33.59,33.59,0,0,1,269,205.89a75.71,75.71,0,0,0,54.47,45.67,76.77,76.77,0,0,0,16.5,1.7,33.2,33.2,0,0,1-6.81-19.44C331.28,233.59,329.36,233.29,327.48,232.88Z"/><circle class="cls-4" cx="366.62" cy="233.01" r="23.24"/><path class="cls-3" d="M399,224.46a76,76,0,0,0,3.81-89.21,33.47,33.47,0,0,1-13.06,15.31,57,57,0,0,1-1.86,56.59A33.34,33.34,0,0,1,399,224.46Z"/><path class="cls-2" d="M273.27,139.73c.6,0,1.18,0,1.77,0a33.67,33.67,0,0,1,17.63,5,56.7,56.7,0,0,1,45.64-24.4,33.75,33.75,0,0,1,7.06-18.85A76.45,76.45,0,0,0,273.27,139.73Z"/><circle class="cls-2" cx="108.19" cy="173.07" r="23.24"/><circle class="cls-3" cx="204.99" cy="122.1" r="23.24"/><path class="cls-4" d="M160.61,232.88A56.64,56.64,0,0,1,122,203.44a33.58,33.58,0,0,1-19.87,2.45,75.74,75.74,0,0,0,54.47,45.67,76.77,76.77,0,0,0,16.5,1.7,33.19,33.19,0,0,1-6.8-19.44C164.4,233.59,162.48,233.29,160.61,232.88Z"/><circle class="cls-4" cx="199.74" cy="233.01" r="23.24"/><path class="cls-2" d="M106.4,139.73c.59,0,1.17,0,1.77,0a33.72,33.72,0,0,1,17.63,5,56.67,56.67,0,0,1,45.63-24.4,33.75,33.75,0,0,1,7.06-18.85A76.43,76.43,0,0,0,106.4,139.73Z"/></svg>